G04 PROTEUS RS274X GERBER FILE*
%FSLAX45Y45*%
%MOMM*%
G01*
%ADD17C,0.203200*%
%ADD72C,0.508000*%
%ADD73C,0.827120*%
%ADD30C,0.258030*%
%ADD31C,0.490380*%
%ADD32C,0.812800*%
%ADD33C,0.211660*%
%ADD34C,0.159200*%
%ADD35C,0.059260*%
%ADD36C,0.190500*%
%ADD37C,0.711200*%
%ADD38C,0.110230*%
%ADD39C,0.111760*%
D17*
X-6952160Y+3393500D02*
X-1851840Y+3393500D01*
X-1851840Y+5044500D01*
X-6952160Y+5044500D01*
X-6952160Y+3393500D01*
D72*
X-1989000Y+3457000D02*
X-1989000Y+3457000D01*
D73*
X-3738868Y+4467138D02*
X-3738868Y+4053575D01*
X-3831919Y+3970863D01*
X-4204125Y+3970863D01*
X-4297177Y+4053575D01*
X-4297177Y+4467138D01*
X-4669383Y+4301713D02*
X-4855486Y+4467138D01*
X-4855486Y+3970863D01*
D17*
X-2018160Y+5364840D02*
X-473840Y+5364840D01*
X-473840Y+7417160D01*
X-2018160Y+7417160D01*
X-2018160Y+5364840D01*
D30*
X-1323410Y+5578202D02*
X-1168591Y+5578202D01*
X-1168591Y+5694316D01*
X-1220197Y+5752373D01*
X-1271804Y+5752373D01*
X-1323410Y+5694316D01*
X-1323410Y+5578202D01*
X-1168591Y+5839458D02*
X-1168591Y+5955572D01*
X-1168591Y+5897515D02*
X-1323410Y+5897515D01*
X-1323410Y+5839458D02*
X-1323410Y+5955572D01*
X-1297607Y+6042658D02*
X-1323410Y+6071686D01*
X-1323410Y+6187800D01*
X-1297607Y+6216829D01*
X-1271804Y+6216829D01*
X-1246000Y+6187800D01*
X-1246000Y+6071686D01*
X-1220197Y+6042658D01*
X-1194394Y+6042658D01*
X-1168591Y+6071686D01*
X-1168591Y+6187800D01*
X-1194394Y+6216829D01*
X-1168591Y+6536142D02*
X-1168591Y+6681285D01*
X-1194394Y+6681285D01*
X-1323410Y+6536142D01*
X-1297607Y+6826427D02*
X-1297607Y+6855456D01*
X-1323410Y+6855456D01*
X-1323410Y+6826427D01*
X-1297607Y+6826427D01*
X-1194394Y+7000598D02*
X-1168591Y+7029627D01*
X-1168591Y+7116712D01*
X-1194394Y+7145741D01*
X-1220197Y+7145741D01*
X-1246000Y+7116712D01*
X-1246000Y+7029627D01*
X-1271804Y+7000598D01*
X-1323410Y+7000598D01*
X-1323410Y+7145741D01*
D17*
X-9092160Y+3727500D02*
X-7293840Y+3727500D01*
X-7293840Y+4616500D01*
X-9092160Y+4616500D01*
X-9092160Y+3727500D01*
D72*
X-7431000Y+3791000D02*
X-7431000Y+3791000D01*
D31*
X-7832930Y+4319117D02*
X-7832930Y+4073922D01*
X-7888098Y+4024883D01*
X-8108773Y+4024883D01*
X-8163942Y+4073922D01*
X-8163942Y+4319117D01*
X-8329448Y+4270078D02*
X-8384617Y+4319117D01*
X-8550123Y+4319117D01*
X-8605292Y+4270078D01*
X-8605292Y+4221039D01*
X-8550123Y+4172000D01*
X-8384617Y+4172000D01*
X-8329448Y+4122961D01*
X-8329448Y+4024883D01*
X-8605292Y+4024883D01*
D17*
X-7995160Y+7257840D02*
X-7339840Y+7257840D01*
X-7339840Y+8040160D01*
X-7995160Y+8040160D01*
X-7995160Y+7257840D01*
D32*
X-7604000Y+7776000D02*
X-7604000Y+7776000D01*
D33*
X-7477001Y+7433100D02*
X-7477001Y+7560099D01*
X-7596062Y+7560099D01*
X-7619875Y+7538933D01*
X-7619875Y+7517766D01*
X-7596062Y+7496600D01*
X-7619875Y+7475433D01*
X-7619875Y+7454266D01*
X-7596062Y+7433100D01*
X-7477001Y+7433100D01*
X-7477001Y+7496600D02*
X-7596062Y+7496600D01*
X-7715124Y+7517766D02*
X-7762749Y+7560099D01*
X-7762749Y+7433100D01*
D17*
X-2441600Y+273400D02*
X-1728400Y+273400D01*
X-1728400Y+1746600D01*
X-2441600Y+1746600D01*
X-2441600Y+273400D01*
D32*
X-1830000Y+1645000D02*
X-1830000Y+1645000D01*
D34*
X-2132763Y+365732D02*
X-2037238Y+365732D01*
X-2037238Y+455286D01*
X-2053159Y+473197D01*
X-2069080Y+473197D01*
X-2085000Y+455286D01*
X-2100921Y+473197D01*
X-2116842Y+473197D01*
X-2132763Y+455286D01*
X-2132763Y+365732D01*
X-2085000Y+365732D02*
X-2085000Y+455286D01*
X-2037238Y+509019D02*
X-2116842Y+509019D01*
X-2132763Y+526929D01*
X-2132763Y+598573D01*
X-2116842Y+616484D01*
X-2037238Y+616484D01*
X-2037238Y+652306D02*
X-2037238Y+759771D01*
X-2037238Y+706038D02*
X-2132763Y+706038D01*
X-2037238Y+795593D02*
X-2037238Y+903058D01*
X-2037238Y+849325D02*
X-2132763Y+849325D01*
X-2069080Y+938880D02*
X-2037238Y+974701D01*
X-2037238Y+1010523D01*
X-2069080Y+1046345D01*
X-2100921Y+1046345D01*
X-2132763Y+1010523D01*
X-2132763Y+974701D01*
X-2100921Y+938880D01*
X-2069080Y+938880D01*
X-2132763Y+1082167D02*
X-2037238Y+1082167D01*
X-2132763Y+1189632D01*
X-2037238Y+1189632D01*
X-2116842Y+1368741D02*
X-2053159Y+1368741D01*
X-2037238Y+1386651D01*
X-2037238Y+1458295D01*
X-2053159Y+1476206D01*
X-2116842Y+1476206D01*
X-2132763Y+1458295D01*
X-2132763Y+1386651D01*
X-2116842Y+1368741D01*
X-2132763Y+1368741D02*
X-2037238Y+1476206D01*
D17*
X-4264600Y+275400D02*
X-3551400Y+275400D01*
X-3551400Y+1748600D01*
X-4264600Y+1748600D01*
X-4264600Y+275400D01*
D32*
X-3653000Y+1647000D02*
X-3653000Y+1647000D01*
D34*
X-3955763Y+367732D02*
X-3860238Y+367732D01*
X-3860238Y+457286D01*
X-3876159Y+475197D01*
X-3892080Y+475197D01*
X-3908000Y+457286D01*
X-3923921Y+475197D01*
X-3939842Y+475197D01*
X-3955763Y+457286D01*
X-3955763Y+367732D01*
X-3908000Y+367732D02*
X-3908000Y+457286D01*
X-3860238Y+511019D02*
X-3939842Y+511019D01*
X-3955763Y+528929D01*
X-3955763Y+600573D01*
X-3939842Y+618484D01*
X-3860238Y+618484D01*
X-3860238Y+654306D02*
X-3860238Y+761771D01*
X-3860238Y+708038D02*
X-3955763Y+708038D01*
X-3860238Y+797593D02*
X-3860238Y+905058D01*
X-3860238Y+851325D02*
X-3955763Y+851325D01*
X-3892080Y+940880D02*
X-3860238Y+976701D01*
X-3860238Y+1012523D01*
X-3892080Y+1048345D01*
X-3923921Y+1048345D01*
X-3955763Y+1012523D01*
X-3955763Y+976701D01*
X-3923921Y+940880D01*
X-3892080Y+940880D01*
X-3955763Y+1084167D02*
X-3860238Y+1084167D01*
X-3955763Y+1191632D01*
X-3860238Y+1191632D01*
X-3892080Y+1406562D02*
X-3860238Y+1442384D01*
X-3955763Y+1442384D01*
D17*
X-6103600Y+269400D02*
X-5390400Y+269400D01*
X-5390400Y+1742600D01*
X-6103600Y+1742600D01*
X-6103600Y+269400D01*
D32*
X-5492000Y+1641000D02*
X-5492000Y+1641000D01*
D34*
X-5794763Y+361732D02*
X-5699238Y+361732D01*
X-5699238Y+451286D01*
X-5715159Y+469197D01*
X-5731080Y+469197D01*
X-5747000Y+451286D01*
X-5762921Y+469197D01*
X-5778842Y+469197D01*
X-5794763Y+451286D01*
X-5794763Y+361732D01*
X-5747000Y+361732D02*
X-5747000Y+451286D01*
X-5699238Y+505019D02*
X-5778842Y+505019D01*
X-5794763Y+522929D01*
X-5794763Y+594573D01*
X-5778842Y+612484D01*
X-5699238Y+612484D01*
X-5699238Y+648306D02*
X-5699238Y+755771D01*
X-5699238Y+702038D02*
X-5794763Y+702038D01*
X-5699238Y+791593D02*
X-5699238Y+899058D01*
X-5699238Y+845325D02*
X-5794763Y+845325D01*
X-5731080Y+934880D02*
X-5699238Y+970701D01*
X-5699238Y+1006523D01*
X-5731080Y+1042345D01*
X-5762921Y+1042345D01*
X-5794763Y+1006523D01*
X-5794763Y+970701D01*
X-5762921Y+934880D01*
X-5731080Y+934880D01*
X-5794763Y+1078167D02*
X-5699238Y+1078167D01*
X-5794763Y+1185632D01*
X-5699238Y+1185632D01*
X-5715159Y+1382651D02*
X-5699238Y+1400562D01*
X-5699238Y+1454295D01*
X-5715159Y+1472206D01*
X-5731080Y+1472206D01*
X-5747000Y+1454295D01*
X-5747000Y+1400562D01*
X-5762921Y+1382651D01*
X-5794763Y+1382651D01*
X-5794763Y+1472206D01*
D17*
X-7959600Y+268400D02*
X-7246400Y+268400D01*
X-7246400Y+1741600D01*
X-7959600Y+1741600D01*
X-7959600Y+268400D01*
D32*
X-7348000Y+1640000D02*
X-7348000Y+1640000D01*
D34*
X-7650763Y+360732D02*
X-7555238Y+360732D01*
X-7555238Y+450286D01*
X-7571159Y+468197D01*
X-7587080Y+468197D01*
X-7603000Y+450286D01*
X-7618921Y+468197D01*
X-7634842Y+468197D01*
X-7650763Y+450286D01*
X-7650763Y+360732D01*
X-7603000Y+360732D02*
X-7603000Y+450286D01*
X-7555238Y+504019D02*
X-7634842Y+504019D01*
X-7650763Y+521929D01*
X-7650763Y+593573D01*
X-7634842Y+611484D01*
X-7555238Y+611484D01*
X-7555238Y+647306D02*
X-7555238Y+754771D01*
X-7555238Y+701038D02*
X-7650763Y+701038D01*
X-7555238Y+790593D02*
X-7555238Y+898058D01*
X-7555238Y+844325D02*
X-7650763Y+844325D01*
X-7587080Y+933880D02*
X-7555238Y+969701D01*
X-7555238Y+1005523D01*
X-7587080Y+1041345D01*
X-7618921Y+1041345D01*
X-7650763Y+1005523D01*
X-7650763Y+969701D01*
X-7618921Y+933880D01*
X-7587080Y+933880D01*
X-7650763Y+1077167D02*
X-7555238Y+1077167D01*
X-7650763Y+1184632D01*
X-7555238Y+1184632D01*
X-7571159Y+1381651D02*
X-7555238Y+1399562D01*
X-7555238Y+1453295D01*
X-7571159Y+1471206D01*
X-7587080Y+1471206D01*
X-7603000Y+1453295D01*
X-7618921Y+1471206D01*
X-7634842Y+1471206D01*
X-7650763Y+1453295D01*
X-7650763Y+1399562D01*
X-7634842Y+1381651D01*
X-7603000Y+1417473D02*
X-7603000Y+1453295D01*
D17*
X-1415160Y+2313840D02*
X-378840Y+2313840D01*
X-378840Y+2842160D01*
X-1415160Y+2842160D01*
X-1415160Y+2313840D01*
D32*
X-1151000Y+2578000D02*
X-1151000Y+2578000D01*
D35*
X-424566Y+2560220D02*
X-424566Y+2595779D01*
X-457902Y+2595779D01*
X-464570Y+2589853D01*
X-464570Y+2583926D01*
X-457902Y+2578000D01*
X-464570Y+2572073D01*
X-464570Y+2566146D01*
X-457902Y+2560220D01*
X-424566Y+2560220D01*
X-424566Y+2578000D02*
X-457902Y+2578000D01*
X-477905Y+2595779D02*
X-477905Y+2566146D01*
X-484572Y+2560220D01*
X-511241Y+2560220D01*
X-517909Y+2566146D01*
X-517909Y+2595779D01*
X-531244Y+2595779D02*
X-571248Y+2595779D01*
X-551246Y+2595779D02*
X-551246Y+2560220D01*
X-584583Y+2595779D02*
X-624587Y+2595779D01*
X-604585Y+2595779D02*
X-604585Y+2560220D01*
X-637922Y+2583926D02*
X-651256Y+2595779D01*
X-664591Y+2595779D01*
X-677926Y+2583926D01*
X-677926Y+2572073D01*
X-664591Y+2560220D01*
X-651256Y+2560220D01*
X-637922Y+2572073D01*
X-637922Y+2583926D01*
X-691261Y+2560220D02*
X-691261Y+2595779D01*
X-731265Y+2560220D01*
X-731265Y+2595779D01*
X-797939Y+2560220D02*
X-797939Y+2595779D01*
X-831275Y+2595779D01*
X-837943Y+2589853D01*
X-837943Y+2583926D01*
X-831275Y+2578000D01*
X-797939Y+2578000D01*
X-831275Y+2578000D02*
X-837943Y+2572073D01*
X-837943Y+2560220D01*
X-891282Y+2560220D02*
X-851278Y+2560220D01*
X-851278Y+2595779D01*
X-891282Y+2595779D01*
X-851278Y+2578000D02*
X-877947Y+2578000D01*
X-904617Y+2566146D02*
X-911284Y+2560220D01*
X-937953Y+2560220D01*
X-944621Y+2566146D01*
X-944621Y+2572073D01*
X-937953Y+2578000D01*
X-911284Y+2578000D01*
X-904617Y+2583926D01*
X-904617Y+2589853D01*
X-911284Y+2595779D01*
X-937953Y+2595779D01*
X-944621Y+2589853D01*
X-997960Y+2560220D02*
X-957956Y+2560220D01*
X-957956Y+2595779D01*
X-997960Y+2595779D01*
X-957956Y+2578000D02*
X-984625Y+2578000D01*
X-1011295Y+2595779D02*
X-1051299Y+2595779D01*
X-1031297Y+2595779D02*
X-1031297Y+2560220D01*
D17*
X-4319160Y+7515340D02*
X-3727340Y+7515340D01*
X-3727340Y+8107160D01*
X-4319160Y+8107160D01*
X-4319160Y+7515340D01*
D32*
X-4055000Y+7970000D02*
X-4055000Y+7970000D01*
D36*
X-3851800Y+7665200D02*
X-3851800Y+7779500D01*
X-3937525Y+7779500D01*
X-3980387Y+7741400D01*
X-3980387Y+7703300D01*
X-3937525Y+7665200D01*
X-3851800Y+7665200D01*
X-4066112Y+7741400D02*
X-4108975Y+7779500D01*
X-4108975Y+7665200D01*
D17*
X-4137900Y+6034100D02*
X-3960100Y+6034100D01*
X-3960100Y+7227900D01*
X-4137900Y+7227900D01*
X-4137900Y+6034100D01*
D37*
X-4049000Y+7139000D02*
X-4049000Y+7139000D01*
D38*
X-4082071Y+6469558D02*
X-4015930Y+6469558D01*
X-4015930Y+6531565D01*
X-4026953Y+6543967D01*
X-4037977Y+6543967D01*
X-4049000Y+6531565D01*
X-4049000Y+6469558D01*
X-4049000Y+6531565D02*
X-4060024Y+6543967D01*
X-4082071Y+6543967D01*
X-4026953Y+6581171D02*
X-4015930Y+6593573D01*
X-4015930Y+6630777D01*
X-4026953Y+6643179D01*
X-4037977Y+6643179D01*
X-4049000Y+6630777D01*
X-4049000Y+6593573D01*
X-4060024Y+6581171D01*
X-4082071Y+6581171D01*
X-4082071Y+6643179D01*
D17*
X-5121160Y+7515340D02*
X-4529340Y+7515340D01*
X-4529340Y+8107160D01*
X-5121160Y+8107160D01*
X-5121160Y+7515340D01*
D32*
X-4857000Y+7970000D02*
X-4857000Y+7970000D01*
D36*
X-4653800Y+7665200D02*
X-4653800Y+7779500D01*
X-4739525Y+7779500D01*
X-4782387Y+7741400D01*
X-4782387Y+7703300D01*
X-4739525Y+7665200D01*
X-4653800Y+7665200D01*
X-4846681Y+7760450D02*
X-4868112Y+7779500D01*
X-4932406Y+7779500D01*
X-4953837Y+7760450D01*
X-4953837Y+7741400D01*
X-4932406Y+7722350D01*
X-4868112Y+7722350D01*
X-4846681Y+7703300D01*
X-4846681Y+7665200D01*
X-4953837Y+7665200D01*
D17*
X-4946900Y+6034100D02*
X-4769100Y+6034100D01*
X-4769100Y+7227900D01*
X-4946900Y+7227900D01*
X-4946900Y+6034100D01*
D37*
X-4858000Y+7139000D02*
X-4858000Y+7139000D01*
D38*
X-4891071Y+6469558D02*
X-4824930Y+6469558D01*
X-4824930Y+6531565D01*
X-4835953Y+6543967D01*
X-4846977Y+6543967D01*
X-4858000Y+6531565D01*
X-4858000Y+6469558D01*
X-4858000Y+6531565D02*
X-4869024Y+6543967D01*
X-4891071Y+6543967D01*
X-4835953Y+6581171D02*
X-4824930Y+6593573D01*
X-4824930Y+6630777D01*
X-4835953Y+6643179D01*
X-4846977Y+6643179D01*
X-4858000Y+6630777D01*
X-4869024Y+6643179D01*
X-4880048Y+6643179D01*
X-4891071Y+6630777D01*
X-4891071Y+6593573D01*
X-4880048Y+6581171D01*
X-4858000Y+6605974D02*
X-4858000Y+6630777D01*
D17*
X-3472160Y+7515340D02*
X-2880340Y+7515340D01*
X-2880340Y+8107160D01*
X-3472160Y+8107160D01*
X-3472160Y+7515340D01*
D32*
X-3208000Y+7970000D02*
X-3208000Y+7970000D01*
D36*
X-3004800Y+7665200D02*
X-3004800Y+7779500D01*
X-3090525Y+7779500D01*
X-3133387Y+7741400D01*
X-3133387Y+7703300D01*
X-3090525Y+7665200D01*
X-3004800Y+7665200D01*
X-3197681Y+7760450D02*
X-3219112Y+7779500D01*
X-3283406Y+7779500D01*
X-3304837Y+7760450D01*
X-3304837Y+7741400D01*
X-3283406Y+7722350D01*
X-3304837Y+7703300D01*
X-3304837Y+7684250D01*
X-3283406Y+7665200D01*
X-3219112Y+7665200D01*
X-3197681Y+7684250D01*
X-3240543Y+7722350D02*
X-3283406Y+7722350D01*
D17*
X-3297900Y+6024100D02*
X-3120100Y+6024100D01*
X-3120100Y+7217900D01*
X-3297900Y+7217900D01*
X-3297900Y+6024100D01*
D37*
X-3209000Y+7129000D02*
X-3209000Y+7129000D01*
D38*
X-3242071Y+6459558D02*
X-3175930Y+6459558D01*
X-3175930Y+6521565D01*
X-3186953Y+6533967D01*
X-3197977Y+6533967D01*
X-3209000Y+6521565D01*
X-3209000Y+6459558D01*
X-3209000Y+6521565D02*
X-3220024Y+6533967D01*
X-3242071Y+6533967D01*
X-3197977Y+6583573D02*
X-3175930Y+6608376D01*
X-3242071Y+6608376D01*
D17*
X-5922160Y+7514340D02*
X-5330340Y+7514340D01*
X-5330340Y+8106160D01*
X-5922160Y+8106160D01*
X-5922160Y+7514340D01*
D32*
X-5658000Y+7969000D02*
X-5658000Y+7969000D01*
D36*
X-5454800Y+7664200D02*
X-5454800Y+7778500D01*
X-5540525Y+7778500D01*
X-5583387Y+7740400D01*
X-5583387Y+7702300D01*
X-5540525Y+7664200D01*
X-5454800Y+7664200D01*
X-5754837Y+7702300D02*
X-5626250Y+7702300D01*
X-5711975Y+7778500D01*
X-5711975Y+7664200D01*
D17*
X-5745900Y+6044100D02*
X-5568100Y+6044100D01*
X-5568100Y+7237900D01*
X-5745900Y+7237900D01*
X-5745900Y+6044100D01*
D37*
X-5657000Y+7149000D02*
X-5657000Y+7149000D01*
D38*
X-5690071Y+6479558D02*
X-5623930Y+6479558D01*
X-5623930Y+6541565D01*
X-5634953Y+6553967D01*
X-5645977Y+6553967D01*
X-5657000Y+6541565D01*
X-5657000Y+6479558D01*
X-5657000Y+6541565D02*
X-5668024Y+6553967D01*
X-5690071Y+6553967D01*
X-5668024Y+6653179D02*
X-5668024Y+6578770D01*
X-5623930Y+6628376D01*
X-5690071Y+6628376D01*
D17*
X-8253160Y+6497840D02*
X-7724840Y+6497840D01*
X-7724840Y+6772160D01*
X-8253160Y+6772160D01*
X-8253160Y+6497840D01*
D37*
X-8116000Y+6635000D02*
X-8116000Y+6635000D01*
D39*
X-7877494Y+6612648D02*
X-7864921Y+6601472D01*
X-7827202Y+6601472D01*
X-7802056Y+6623824D01*
X-7802056Y+6646176D01*
X-7827202Y+6668528D01*
X-7864921Y+6668528D01*
X-7877494Y+6657352D01*
X-7927786Y+6646176D02*
X-7952932Y+6668528D01*
X-7952932Y+6601472D01*
D17*
X-7409160Y+6499840D02*
X-7134840Y+6499840D01*
X-7134840Y+7028160D01*
X-7409160Y+7028160D01*
X-7409160Y+6499840D01*
D37*
X-7272000Y+6891000D02*
X-7272000Y+6891000D01*
D39*
X-7294352Y+6652494D02*
X-7305528Y+6639921D01*
X-7305528Y+6602202D01*
X-7283176Y+6577056D01*
X-7260824Y+6577056D01*
X-7238472Y+6602202D01*
X-7238472Y+6639921D01*
X-7249648Y+6652494D01*
X-7249648Y+6690213D02*
X-7238472Y+6702786D01*
X-7238472Y+6740505D01*
X-7249648Y+6753078D01*
X-7260824Y+6753078D01*
X-7272000Y+6740505D01*
X-7272000Y+6702786D01*
X-7283176Y+6690213D01*
X-7305528Y+6690213D01*
X-7305528Y+6753078D01*
D17*
X-9700000Y+50000D02*
X-50000Y+50000D01*
X-50000Y+8650000D01*
X-9700000Y+8650000D01*
X-9700000Y+50000D01*
M02*
