G04 PROTEUS RS274X GERBER FILE*
%FSLAX45Y45*%
%MOMM*%
G01*
%AMPPAD014*
4,1,36,
0.635000,0.762000,
-0.635000,0.762000,
-0.660970,0.759470,
-0.684980,0.752200,
-0.706580,0.740650,
-0.725290,0.725290,
-0.740650,0.706570,
-0.752200,0.684980,
-0.759470,0.660970,
-0.762000,0.635000,
-0.762000,-0.635000,
-0.759470,-0.660970,
-0.752200,-0.684980,
-0.740650,-0.706570,
-0.725290,-0.725290,
-0.706580,-0.740650,
-0.684980,-0.752200,
-0.660970,-0.759470,
-0.635000,-0.762000,
0.635000,-0.762000,
0.660970,-0.759470,
0.684980,-0.752200,
0.706580,-0.740650,
0.725290,-0.725290,
0.740650,-0.706570,
0.752200,-0.684980,
0.759470,-0.660970,
0.762000,-0.635000,
0.762000,0.635000,
0.759470,0.660970,
0.752200,0.684980,
0.740650,0.706570,
0.725290,0.725290,
0.706580,0.740650,
0.684980,0.752200,
0.660970,0.759470,
0.635000,0.762000,
0*%
%ADD22PPAD014*%
%ADD23C,1.524000*%
%AMPPAD016*
4,1,8,
0.509800,1.397000,
-0.509800,1.397000,
-0.889000,1.017800,
-0.889000,-1.017800,
-0.509800,-1.397000,
0.509800,-1.397000,
0.889000,-1.017800,
0.889000,1.017800,
0.509800,1.397000,
0*%
%ADD24PPAD016*%
%ADD25C,2.286000*%
%AMPPAD018*
4,1,36,
1.143000,-1.016000,
1.143000,1.016000,
1.140470,1.041970,
1.133200,1.065980,
1.121650,1.087580,
1.106290,1.106290,
1.087570,1.121650,
1.065980,1.133200,
1.041970,1.140470,
1.016000,1.143000,
-1.016000,1.143000,
-1.041970,1.140470,
-1.065980,1.133200,
-1.087570,1.121650,
-1.106290,1.106290,
-1.121650,1.087580,
-1.133200,1.065980,
-1.140470,1.041970,
-1.143000,1.016000,
-1.143000,-1.016000,
-1.140470,-1.041970,
-1.133200,-1.065980,
-1.121650,-1.087580,
-1.106290,-1.106290,
-1.087570,-1.121650,
-1.065980,-1.133200,
-1.041970,-1.140470,
-1.016000,-1.143000,
1.016000,-1.143000,
1.041970,-1.140470,
1.065980,-1.133200,
1.087570,-1.121650,
1.106290,-1.106290,
1.121650,-1.087580,
1.133200,-1.065980,
1.140470,-1.041970,
1.143000,-1.016000,
0*%
%ADD26PPAD018*%
%ADD13C,2.032000*%
%ADD27C,4.508000*%
%AMPPAD020*
4,1,4,
1.079500,0.469900,
1.079500,-0.469900,
-1.079500,-0.469900,
-1.079500,0.469900,
1.079500,0.469900,
0*%
%ADD28PPAD020*%
%AMPPAD021*
4,1,4,
1.079500,-1.625600,
-1.079500,-1.625600,
-1.079500,1.625600,
1.079500,1.625600,
1.079500,-1.625600,
0*%
%ADD29PPAD021*%
%ADD17C,0.203200*%
D22*
X-1989000Y+3457000D03*
D23*
X-2243000Y+3457000D03*
X-2497000Y+3457000D03*
X-2751000Y+3457000D03*
X-3005000Y+3457000D03*
X-3259000Y+3457000D03*
X-3513000Y+3457000D03*
X-3767000Y+3457000D03*
X-4021000Y+3457000D03*
X-4275000Y+3457000D03*
X-4529000Y+3457000D03*
X-4783000Y+3457000D03*
X-5037000Y+3457000D03*
X-5291000Y+3457000D03*
X-5545000Y+3457000D03*
X-5799000Y+3457000D03*
X-6053000Y+3457000D03*
X-6307000Y+3457000D03*
X-6561000Y+3457000D03*
X-6815000Y+3457000D03*
X-6815000Y+4981000D03*
X-6561000Y+4981000D03*
X-6307000Y+4981000D03*
X-6053000Y+4981000D03*
X-5799000Y+4981000D03*
X-5545000Y+4981000D03*
X-5291000Y+4981000D03*
X-5037000Y+4981000D03*
X-4783000Y+4981000D03*
X-4529000Y+4981000D03*
X-4275000Y+4981000D03*
X-4021000Y+4981000D03*
X-3767000Y+4981000D03*
X-3513000Y+4981000D03*
X-3259000Y+4981000D03*
X-3005000Y+4981000D03*
X-2751000Y+4981000D03*
X-2497000Y+4981000D03*
X-2243000Y+4981000D03*
X-1989000Y+4981000D03*
D24*
X-1500000Y+7153000D03*
X-1754000Y+7153000D03*
X-1500000Y+5629000D03*
X-1246000Y+7153000D03*
X-1246000Y+5629000D03*
X-992000Y+5629000D03*
X-1754000Y+5629000D03*
X-738000Y+5629000D03*
X-738000Y+7153000D03*
X-992000Y+7153000D03*
D22*
X-7431000Y+3791000D03*
D23*
X-7685000Y+3791000D03*
X-7939000Y+3791000D03*
X-8193000Y+3791000D03*
X-8447000Y+3791000D03*
X-8701000Y+3791000D03*
X-8955000Y+3791000D03*
X-8955000Y+4553000D03*
X-8701000Y+4553000D03*
X-8447000Y+4553000D03*
X-8193000Y+4553000D03*
X-7939000Y+4553000D03*
X-7685000Y+4553000D03*
X-7431000Y+4553000D03*
D25*
X-7604000Y+7776000D03*
X-7604000Y+7522000D03*
X-1830000Y+1645000D03*
X-2340000Y+1645000D03*
X-1830000Y+375000D03*
X-2340000Y+375000D03*
X-3653000Y+1647000D03*
X-4163000Y+1647000D03*
X-3653000Y+377000D03*
X-4163000Y+377000D03*
X-5492000Y+1641000D03*
X-6002000Y+1641000D03*
X-5492000Y+371000D03*
X-6002000Y+371000D03*
X-7348000Y+1640000D03*
X-7858000Y+1640000D03*
X-7348000Y+370000D03*
X-7858000Y+370000D03*
X-1151000Y+2578000D03*
X-897000Y+2578000D03*
X-643000Y+2578000D03*
D26*
X-4055000Y+7716000D03*
X-4055000Y+7970000D03*
D13*
X-4049000Y+7139000D03*
X-4049000Y+6123000D03*
D26*
X-4857000Y+7716000D03*
X-4857000Y+7970000D03*
D13*
X-4858000Y+7139000D03*
X-4858000Y+6123000D03*
D26*
X-3208000Y+7716000D03*
X-3208000Y+7970000D03*
D13*
X-3209000Y+7129000D03*
X-3209000Y+6113000D03*
D26*
X-5658000Y+7715000D03*
X-5658000Y+7969000D03*
D13*
X-5657000Y+7149000D03*
X-5657000Y+6133000D03*
D27*
X-500000Y+8300000D03*
X-6600000Y+8300000D03*
D28*
X-7358000Y+5523000D03*
X-7358000Y+5753000D03*
X-7358000Y+5983000D03*
D29*
X-7938000Y+5753000D03*
D13*
X-8116000Y+6635000D03*
X-7862000Y+6635000D03*
X-7272000Y+6891000D03*
X-7272000Y+6637000D03*
D27*
X-500000Y+700000D03*
X-8900000Y+700000D03*
D17*
X-9700000Y+50000D02*
X-50000Y+50000D01*
X-50000Y+8650000D01*
X-9700000Y+8650000D01*
X-9700000Y+50000D01*
M02*
