G04 PROTEUS RS274X GERBER FILE*
%FSLAX45Y45*%
%MOMM*%
G01*
%ADD17C,0.203200*%
%ADD43C,0.127000*%
%ADD44C,0.063500*%
D17*
X-1989000Y+3520500D02*
X-1989000Y+3393500D01*
X-1925500Y+3457000D02*
X-2052500Y+3457000D01*
X-2243000Y+3520500D02*
X-2243000Y+3393500D01*
X-2179500Y+3457000D02*
X-2306500Y+3457000D01*
X-2497000Y+3520500D02*
X-2497000Y+3393500D01*
X-2433500Y+3457000D02*
X-2560500Y+3457000D01*
X-2751000Y+3520500D02*
X-2751000Y+3393500D01*
X-2687500Y+3457000D02*
X-2814500Y+3457000D01*
X-3005000Y+3520500D02*
X-3005000Y+3393500D01*
X-2941500Y+3457000D02*
X-3068500Y+3457000D01*
X-3259000Y+3520500D02*
X-3259000Y+3393500D01*
X-3195500Y+3457000D02*
X-3322500Y+3457000D01*
X-3513000Y+3520500D02*
X-3513000Y+3393500D01*
X-3449500Y+3457000D02*
X-3576500Y+3457000D01*
X-3767000Y+3520500D02*
X-3767000Y+3393500D01*
X-3703500Y+3457000D02*
X-3830500Y+3457000D01*
X-4021000Y+3520500D02*
X-4021000Y+3393500D01*
X-3957500Y+3457000D02*
X-4084500Y+3457000D01*
X-4275000Y+3520500D02*
X-4275000Y+3393500D01*
X-4211500Y+3457000D02*
X-4338500Y+3457000D01*
X-4529000Y+3520500D02*
X-4529000Y+3393500D01*
X-4465500Y+3457000D02*
X-4592500Y+3457000D01*
X-4783000Y+3520500D02*
X-4783000Y+3393500D01*
X-4719500Y+3457000D02*
X-4846500Y+3457000D01*
X-5037000Y+3520500D02*
X-5037000Y+3393500D01*
X-4973500Y+3457000D02*
X-5100500Y+3457000D01*
X-5291000Y+3520500D02*
X-5291000Y+3393500D01*
X-5227500Y+3457000D02*
X-5354500Y+3457000D01*
X-5545000Y+3520500D02*
X-5545000Y+3393500D01*
X-5481500Y+3457000D02*
X-5608500Y+3457000D01*
X-5799000Y+3520500D02*
X-5799000Y+3393500D01*
X-5735500Y+3457000D02*
X-5862500Y+3457000D01*
X-6053000Y+3520500D02*
X-6053000Y+3393500D01*
X-5989500Y+3457000D02*
X-6116500Y+3457000D01*
X-6307000Y+3520500D02*
X-6307000Y+3393500D01*
X-6243500Y+3457000D02*
X-6370500Y+3457000D01*
X-6561000Y+3520500D02*
X-6561000Y+3393500D01*
X-6497500Y+3457000D02*
X-6624500Y+3457000D01*
X-6815000Y+3520500D02*
X-6815000Y+3393500D01*
X-6751500Y+3457000D02*
X-6878500Y+3457000D01*
X-6815000Y+5044500D02*
X-6815000Y+4917500D01*
X-6751500Y+4981000D02*
X-6878500Y+4981000D01*
X-6561000Y+5044500D02*
X-6561000Y+4917500D01*
X-6497500Y+4981000D02*
X-6624500Y+4981000D01*
X-6307000Y+5044500D02*
X-6307000Y+4917500D01*
X-6243500Y+4981000D02*
X-6370500Y+4981000D01*
X-6053000Y+5044500D02*
X-6053000Y+4917500D01*
X-5989500Y+4981000D02*
X-6116500Y+4981000D01*
X-5799000Y+5044500D02*
X-5799000Y+4917500D01*
X-5735500Y+4981000D02*
X-5862500Y+4981000D01*
X-5545000Y+5044500D02*
X-5545000Y+4917500D01*
X-5481500Y+4981000D02*
X-5608500Y+4981000D01*
X-5291000Y+5044500D02*
X-5291000Y+4917500D01*
X-5227500Y+4981000D02*
X-5354500Y+4981000D01*
X-5037000Y+5044500D02*
X-5037000Y+4917500D01*
X-4973500Y+4981000D02*
X-5100500Y+4981000D01*
X-4783000Y+5044500D02*
X-4783000Y+4917500D01*
X-4719500Y+4981000D02*
X-4846500Y+4981000D01*
X-4529000Y+5044500D02*
X-4529000Y+4917500D01*
X-4465500Y+4981000D02*
X-4592500Y+4981000D01*
X-4275000Y+5044500D02*
X-4275000Y+4917500D01*
X-4211500Y+4981000D02*
X-4338500Y+4981000D01*
X-4021000Y+5044500D02*
X-4021000Y+4917500D01*
X-3957500Y+4981000D02*
X-4084500Y+4981000D01*
X-3767000Y+5044500D02*
X-3767000Y+4917500D01*
X-3703500Y+4981000D02*
X-3830500Y+4981000D01*
X-3513000Y+5044500D02*
X-3513000Y+4917500D01*
X-3449500Y+4981000D02*
X-3576500Y+4981000D01*
X-3259000Y+5044500D02*
X-3259000Y+4917500D01*
X-3195500Y+4981000D02*
X-3322500Y+4981000D01*
X-3005000Y+5044500D02*
X-3005000Y+4917500D01*
X-2941500Y+4981000D02*
X-3068500Y+4981000D01*
X-2751000Y+5044500D02*
X-2751000Y+4917500D01*
X-2687500Y+4981000D02*
X-2814500Y+4981000D01*
X-2497000Y+5044500D02*
X-2497000Y+4917500D01*
X-2433500Y+4981000D02*
X-2560500Y+4981000D01*
X-2243000Y+5044500D02*
X-2243000Y+4917500D01*
X-2179500Y+4981000D02*
X-2306500Y+4981000D01*
X-1989000Y+5044500D02*
X-1989000Y+4917500D01*
X-1925500Y+4981000D02*
X-2052500Y+4981000D01*
X-1500000Y+7216500D02*
X-1500000Y+7089500D01*
X-1436500Y+7153000D02*
X-1563500Y+7153000D01*
X-1754000Y+7216500D02*
X-1754000Y+7089500D01*
X-1690500Y+7153000D02*
X-1817500Y+7153000D01*
X-1500000Y+5692500D02*
X-1500000Y+5565500D01*
X-1436500Y+5629000D02*
X-1563500Y+5629000D01*
X-1246000Y+7216500D02*
X-1246000Y+7089500D01*
X-1182500Y+7153000D02*
X-1309500Y+7153000D01*
X-1246000Y+5692500D02*
X-1246000Y+5565500D01*
X-1182500Y+5629000D02*
X-1309500Y+5629000D01*
X-992000Y+5692500D02*
X-992000Y+5565500D01*
X-928500Y+5629000D02*
X-1055500Y+5629000D01*
X-1754000Y+5692500D02*
X-1754000Y+5565500D01*
X-1690500Y+5629000D02*
X-1817500Y+5629000D01*
X-738000Y+5692500D02*
X-738000Y+5565500D01*
X-674500Y+5629000D02*
X-801500Y+5629000D01*
X-738000Y+7216500D02*
X-738000Y+7089500D01*
X-674500Y+7153000D02*
X-801500Y+7153000D01*
X-992000Y+7216500D02*
X-992000Y+7089500D01*
X-928500Y+7153000D02*
X-1055500Y+7153000D01*
X-7431000Y+3854500D02*
X-7431000Y+3727500D01*
X-7367500Y+3791000D02*
X-7494500Y+3791000D01*
X-7685000Y+3854500D02*
X-7685000Y+3727500D01*
X-7621500Y+3791000D02*
X-7748500Y+3791000D01*
X-7939000Y+3854500D02*
X-7939000Y+3727500D01*
X-7875500Y+3791000D02*
X-8002500Y+3791000D01*
X-8193000Y+3854500D02*
X-8193000Y+3727500D01*
X-8129500Y+3791000D02*
X-8256500Y+3791000D01*
X-8447000Y+3854500D02*
X-8447000Y+3727500D01*
X-8383500Y+3791000D02*
X-8510500Y+3791000D01*
X-8701000Y+3854500D02*
X-8701000Y+3727500D01*
X-8637500Y+3791000D02*
X-8764500Y+3791000D01*
X-8955000Y+3854500D02*
X-8955000Y+3727500D01*
X-8891500Y+3791000D02*
X-9018500Y+3791000D01*
X-8955000Y+4616500D02*
X-8955000Y+4489500D01*
X-8891500Y+4553000D02*
X-9018500Y+4553000D01*
X-8701000Y+4616500D02*
X-8701000Y+4489500D01*
X-8637500Y+4553000D02*
X-8764500Y+4553000D01*
X-8447000Y+4616500D02*
X-8447000Y+4489500D01*
X-8383500Y+4553000D02*
X-8510500Y+4553000D01*
X-8193000Y+4616500D02*
X-8193000Y+4489500D01*
X-8129500Y+4553000D02*
X-8256500Y+4553000D01*
X-7939000Y+4616500D02*
X-7939000Y+4489500D01*
X-7875500Y+4553000D02*
X-8002500Y+4553000D01*
X-7685000Y+4616500D02*
X-7685000Y+4489500D01*
X-7621500Y+4553000D02*
X-7748500Y+4553000D01*
X-7431000Y+4616500D02*
X-7431000Y+4489500D01*
X-7367500Y+4553000D02*
X-7494500Y+4553000D01*
X-7559099Y+7820901D02*
X-7648901Y+7731099D01*
X-7559099Y+7731099D02*
X-7648901Y+7820901D01*
X-7559099Y+7566901D02*
X-7648901Y+7477099D01*
X-7559099Y+7477099D02*
X-7648901Y+7566901D01*
X-1785099Y+1689901D02*
X-1874901Y+1600099D01*
X-1785099Y+1600099D02*
X-1874901Y+1689901D01*
X-2295099Y+1689901D02*
X-2384901Y+1600099D01*
X-2295099Y+1600099D02*
X-2384901Y+1689901D01*
X-1785099Y+419901D02*
X-1874901Y+330099D01*
X-1785099Y+330099D02*
X-1874901Y+419901D01*
X-2295099Y+419901D02*
X-2384901Y+330099D01*
X-2295099Y+330099D02*
X-2384901Y+419901D01*
X-3608099Y+1691901D02*
X-3697901Y+1602099D01*
X-3608099Y+1602099D02*
X-3697901Y+1691901D01*
X-4118099Y+1691901D02*
X-4207901Y+1602099D01*
X-4118099Y+1602099D02*
X-4207901Y+1691901D01*
X-3608099Y+421901D02*
X-3697901Y+332099D01*
X-3608099Y+332099D02*
X-3697901Y+421901D01*
X-4118099Y+421901D02*
X-4207901Y+332099D01*
X-4118099Y+332099D02*
X-4207901Y+421901D01*
X-5447099Y+1685901D02*
X-5536901Y+1596099D01*
X-5447099Y+1596099D02*
X-5536901Y+1685901D01*
X-5957099Y+1685901D02*
X-6046901Y+1596099D01*
X-5957099Y+1596099D02*
X-6046901Y+1685901D01*
X-5447099Y+415901D02*
X-5536901Y+326099D01*
X-5447099Y+326099D02*
X-5536901Y+415901D01*
X-5957099Y+415901D02*
X-6046901Y+326099D01*
X-5957099Y+326099D02*
X-6046901Y+415901D01*
X-7303099Y+1684901D02*
X-7392901Y+1595099D01*
X-7303099Y+1595099D02*
X-7392901Y+1684901D01*
X-7813099Y+1684901D02*
X-7902901Y+1595099D01*
X-7813099Y+1595099D02*
X-7902901Y+1684901D01*
X-7303099Y+414901D02*
X-7392901Y+325099D01*
X-7303099Y+325099D02*
X-7392901Y+414901D01*
X-7813099Y+414901D02*
X-7902901Y+325099D01*
X-7813099Y+325099D02*
X-7902901Y+414901D01*
X-1151000Y+2641500D02*
X-1151000Y+2514500D01*
X-1087500Y+2578000D02*
X-1214500Y+2578000D01*
X-897000Y+2641500D02*
X-897000Y+2514500D01*
X-833500Y+2578000D02*
X-960500Y+2578000D01*
X-643000Y+2641500D02*
X-643000Y+2514500D01*
X-579500Y+2578000D02*
X-706500Y+2578000D01*
X-4010099Y+7760901D02*
X-4099901Y+7671099D01*
X-4010099Y+7671099D02*
X-4099901Y+7760901D01*
X-4010099Y+8014901D02*
X-4099901Y+7925099D01*
X-4010099Y+7925099D02*
X-4099901Y+8014901D01*
X-4049000Y+7202500D02*
X-4049000Y+7075500D01*
X-3985500Y+7139000D02*
X-4112500Y+7139000D01*
X-4049000Y+6186500D02*
X-4049000Y+6059500D01*
X-3985500Y+6123000D02*
X-4112500Y+6123000D01*
X-4812099Y+7760901D02*
X-4901901Y+7671099D01*
X-4812099Y+7671099D02*
X-4901901Y+7760901D01*
X-4812099Y+8014901D02*
X-4901901Y+7925099D01*
X-4812099Y+7925099D02*
X-4901901Y+8014901D01*
X-4858000Y+7202500D02*
X-4858000Y+7075500D01*
X-4794500Y+7139000D02*
X-4921500Y+7139000D01*
X-4858000Y+6186500D02*
X-4858000Y+6059500D01*
X-4794500Y+6123000D02*
X-4921500Y+6123000D01*
X-3163099Y+7760901D02*
X-3252901Y+7671099D01*
X-3163099Y+7671099D02*
X-3252901Y+7760901D01*
X-3163099Y+8014901D02*
X-3252901Y+7925099D01*
X-3163099Y+7925099D02*
X-3252901Y+8014901D01*
X-3209000Y+7192500D02*
X-3209000Y+7065500D01*
X-3145500Y+7129000D02*
X-3272500Y+7129000D01*
X-3209000Y+6176500D02*
X-3209000Y+6049500D01*
X-3145500Y+6113000D02*
X-3272500Y+6113000D01*
X-5613099Y+7759901D02*
X-5702901Y+7670099D01*
X-5613099Y+7670099D02*
X-5702901Y+7759901D01*
X-5613099Y+8013901D02*
X-5702901Y+7924099D01*
X-5613099Y+7924099D02*
X-5702901Y+8013901D01*
X-5657000Y+7212500D02*
X-5657000Y+7085500D01*
X-5593500Y+7149000D02*
X-5720500Y+7149000D01*
X-5657000Y+6196500D02*
X-5657000Y+6069500D01*
X-5593500Y+6133000D02*
X-5720500Y+6133000D01*
X-500000Y+8363500D02*
X-500000Y+8236500D01*
X-436500Y+8300000D02*
X-563500Y+8300000D01*
X-455099Y+8344901D02*
X-544901Y+8255099D01*
X-455099Y+8255099D02*
X-544901Y+8344901D01*
X-6600000Y+8363500D02*
X-6600000Y+8236500D01*
X-6536500Y+8300000D02*
X-6663500Y+8300000D01*
X-6555099Y+8344901D02*
X-6644901Y+8255099D01*
X-6555099Y+8255099D02*
X-6644901Y+8344901D01*
X-8116000Y+6698500D02*
X-8116000Y+6571500D01*
X-8052500Y+6635000D02*
X-8179500Y+6635000D01*
X-7862000Y+6698500D02*
X-7862000Y+6571500D01*
X-7798500Y+6635000D02*
X-7925500Y+6635000D01*
X-7272000Y+6954500D02*
X-7272000Y+6827500D01*
X-7208500Y+6891000D02*
X-7335500Y+6891000D01*
X-7272000Y+6700500D02*
X-7272000Y+6573500D01*
X-7208500Y+6637000D02*
X-7335500Y+6637000D01*
X-500000Y+763500D02*
X-500000Y+636500D01*
X-436500Y+700000D02*
X-563500Y+700000D01*
X-455099Y+744901D02*
X-544901Y+655099D01*
X-455099Y+655099D02*
X-544901Y+744901D01*
X-8900000Y+763500D02*
X-8900000Y+636500D01*
X-8836500Y+700000D02*
X-8963500Y+700000D01*
X-8855099Y+744901D02*
X-8944901Y+655099D01*
X-8855099Y+655099D02*
X-8944901Y+744901D01*
X-9700000Y+50000D02*
X-50000Y+50000D01*
X-50000Y+8650000D01*
X-9700000Y+8650000D01*
X-9700000Y+50000D01*
D43*
X-2683980Y-1217460D02*
X-39840Y-1217460D01*
X-39840Y-214160D01*
X-2683980Y-214160D01*
X-2683980Y-1217460D01*
D44*
X-507202Y-214160D02*
X-507202Y-1217460D01*
X-1320002Y-214160D02*
X-1320002Y-1217460D01*
X-2153122Y-214160D02*
X-2153122Y-1217460D01*
X-39840Y-487210D02*
X-2683980Y-487210D01*
X-39840Y-728510D02*
X-2683980Y-728510D01*
X-39840Y-969810D02*
X-2683980Y-969810D01*
D43*
X-462750Y-377990D02*
X-447510Y-393230D01*
X-386550Y-393230D01*
X-371310Y-377990D01*
X-371310Y-362750D01*
X-386550Y-347510D01*
X-447510Y-347510D01*
X-462750Y-332270D01*
X-462750Y-317030D01*
X-447510Y-301790D01*
X-386550Y-301790D01*
X-371310Y-317030D01*
X-249390Y-301790D02*
X-340830Y-393230D01*
X-340830Y-301790D02*
X-295110Y-347510D01*
X-218910Y-393230D02*
X-218910Y-301790D01*
X-173190Y-347510D01*
X-127470Y-301790D01*
X-127470Y-393230D01*
X-1052030Y-377990D02*
X-1036790Y-393230D01*
X-975830Y-393230D01*
X-960590Y-377990D01*
X-960590Y-362750D01*
X-975830Y-347510D01*
X-1036790Y-347510D01*
X-1052030Y-332270D01*
X-1052030Y-317030D01*
X-1036790Y-301790D01*
X-975830Y-301790D01*
X-960590Y-317030D01*
X-914870Y-301790D02*
X-853910Y-301790D01*
X-884390Y-301790D02*
X-884390Y-393230D01*
X-914870Y-393230D02*
X-853910Y-393230D01*
X-808190Y-301790D02*
X-716750Y-301790D01*
X-808190Y-393230D01*
X-716750Y-393230D01*
X-594830Y-393230D02*
X-686270Y-393230D01*
X-686270Y-301790D01*
X-594830Y-301790D01*
X-686270Y-347510D02*
X-625310Y-347510D01*
X-2108670Y-393230D02*
X-2108670Y-301790D01*
X-2032470Y-301790D01*
X-2017230Y-317030D01*
X-2017230Y-332270D01*
X-2032470Y-347510D01*
X-2108670Y-347510D01*
X-1986750Y-301790D02*
X-1986750Y-393230D01*
X-1895310Y-393230D01*
X-1864830Y-393230D02*
X-1864830Y-332270D01*
X-1834350Y-301790D01*
X-1803870Y-301790D01*
X-1773390Y-332270D01*
X-1773390Y-393230D01*
X-1864830Y-362750D02*
X-1773390Y-362750D01*
X-1742910Y-301790D02*
X-1651470Y-301790D01*
X-1697190Y-301790D02*
X-1697190Y-393230D01*
X-1529550Y-393230D02*
X-1620990Y-393230D01*
X-1620990Y-301790D01*
X-1529550Y-301790D01*
X-1620990Y-347510D02*
X-1560030Y-347510D01*
X-1499070Y-393230D02*
X-1499070Y-301790D01*
X-1438110Y-301790D01*
X-1407630Y-332270D01*
X-1407630Y-362750D01*
X-1438110Y-393230D01*
X-1499070Y-393230D01*
X-2576030Y-332270D02*
X-2545550Y-301790D01*
X-2515070Y-301790D01*
X-2484590Y-332270D01*
X-2484590Y-362750D01*
X-2515070Y-393230D01*
X-2545550Y-393230D01*
X-2576030Y-362750D01*
X-2576030Y-332270D01*
X-2515070Y-362750D02*
X-2484590Y-393230D01*
X-2454110Y-301790D02*
X-2362670Y-301790D01*
X-2408390Y-301790D02*
X-2408390Y-393230D01*
X-2240750Y-301790D02*
X-2332190Y-393230D01*
X-2332190Y-301790D02*
X-2286470Y-347510D01*
D17*
X-286220Y-538010D02*
X-286220Y-665010D01*
X-222720Y-601510D02*
X-349720Y-601510D01*
D43*
X-1294600Y-626910D02*
X-1294600Y-576110D01*
X-1281900Y-563410D01*
X-1231100Y-563410D01*
X-1218400Y-576110D01*
X-1218400Y-626910D01*
X-1231100Y-639610D01*
X-1281900Y-639610D01*
X-1294600Y-626910D01*
X-1294600Y-639610D02*
X-1218400Y-563410D01*
X-1154900Y-626910D02*
X-1142200Y-626910D01*
X-1142200Y-639610D01*
X-1154900Y-639610D01*
X-1154900Y-626910D01*
X-1078700Y-563410D02*
X-1015200Y-563410D01*
X-1015200Y-576110D01*
X-1078700Y-639610D01*
X-913600Y-576110D02*
X-926300Y-563410D01*
X-964400Y-563410D01*
X-977100Y-576110D01*
X-977100Y-626910D01*
X-964400Y-639610D01*
X-926300Y-639610D01*
X-913600Y-626910D01*
X-913600Y-614210D01*
X-926300Y-601510D01*
X-977100Y-601510D01*
X-875500Y-576110D02*
X-862800Y-563410D01*
X-824700Y-563410D01*
X-812000Y-576110D01*
X-812000Y-588810D01*
X-824700Y-601510D01*
X-862800Y-601510D01*
X-875500Y-614210D01*
X-875500Y-639610D01*
X-812000Y-639610D01*
X-786600Y-639610D02*
X-786600Y-588810D01*
X-786600Y-601510D02*
X-773900Y-588810D01*
X-748500Y-614210D01*
X-723100Y-588810D01*
X-710400Y-601510D01*
X-710400Y-639610D01*
X-685000Y-639610D02*
X-685000Y-588810D01*
X-685000Y-601510D02*
X-672300Y-588810D01*
X-646900Y-614210D01*
X-621500Y-588810D01*
X-608800Y-601510D01*
X-608800Y-639610D01*
X-1637500Y-563410D02*
X-1713700Y-639610D01*
X-1713700Y-563410D02*
X-1675600Y-601510D01*
X-1535900Y-639610D02*
X-1612100Y-639610D01*
X-1612100Y-563410D01*
X-1535900Y-563410D01*
X-1612100Y-601510D02*
X-1561300Y-601510D01*
X-1510500Y-626910D02*
X-1497800Y-639610D01*
X-1447000Y-639610D01*
X-1434300Y-626910D01*
X-1434300Y-614210D01*
X-1447000Y-601510D01*
X-1497800Y-601510D01*
X-1510500Y-588810D01*
X-1510500Y-576110D01*
X-1497800Y-563410D01*
X-1447000Y-563410D01*
X-1434300Y-576110D01*
X-2445220Y-563410D02*
X-2381720Y-563410D01*
X-2381720Y-576110D01*
X-2445220Y-639610D01*
X-2280120Y-588810D02*
X-2292820Y-601510D01*
X-2330920Y-601510D01*
X-2343620Y-588810D01*
X-2343620Y-576110D01*
X-2330920Y-563410D01*
X-2292820Y-563410D01*
X-2280120Y-576110D01*
X-2280120Y-626910D01*
X-2292820Y-639610D01*
X-2330920Y-639610D01*
D17*
X-241319Y-797909D02*
X-331121Y-887711D01*
X-241319Y-887711D02*
X-331121Y-797909D01*
D43*
X-1269200Y-830110D02*
X-1243800Y-804710D01*
X-1243800Y-880910D01*
X-1154900Y-868210D02*
X-1142200Y-868210D01*
X-1142200Y-880910D01*
X-1154900Y-880910D01*
X-1154900Y-868210D01*
X-1091400Y-868210D02*
X-1091400Y-817410D01*
X-1078700Y-804710D01*
X-1027900Y-804710D01*
X-1015200Y-817410D01*
X-1015200Y-868210D01*
X-1027900Y-880910D01*
X-1078700Y-880910D01*
X-1091400Y-868210D01*
X-1091400Y-880910D02*
X-1015200Y-804710D01*
X-964400Y-830110D02*
X-939000Y-804710D01*
X-939000Y-880910D01*
X-812000Y-817410D02*
X-824700Y-804710D01*
X-862800Y-804710D01*
X-875500Y-817410D01*
X-875500Y-868210D01*
X-862800Y-880910D01*
X-824700Y-880910D01*
X-812000Y-868210D01*
X-812000Y-855510D01*
X-824700Y-842810D01*
X-875500Y-842810D01*
X-786600Y-880910D02*
X-786600Y-830110D01*
X-786600Y-842810D02*
X-773900Y-830110D01*
X-748500Y-855510D01*
X-723100Y-830110D01*
X-710400Y-842810D01*
X-710400Y-880910D01*
X-685000Y-880910D02*
X-685000Y-830110D01*
X-685000Y-842810D02*
X-672300Y-830110D01*
X-646900Y-855510D01*
X-621500Y-830110D01*
X-608800Y-842810D01*
X-608800Y-880910D01*
X-1637500Y-804710D02*
X-1713700Y-880910D01*
X-1713700Y-804710D02*
X-1675600Y-842810D01*
X-1535900Y-880910D02*
X-1612100Y-880910D01*
X-1612100Y-804710D01*
X-1535900Y-804710D01*
X-1612100Y-842810D02*
X-1561300Y-842810D01*
X-1510500Y-868210D02*
X-1497800Y-880910D01*
X-1447000Y-880910D01*
X-1434300Y-868210D01*
X-1434300Y-855510D01*
X-1447000Y-842810D01*
X-1497800Y-842810D01*
X-1510500Y-830110D01*
X-1510500Y-817410D01*
X-1497800Y-804710D01*
X-1447000Y-804710D01*
X-1434300Y-817410D01*
X-2445220Y-817410D02*
X-2432520Y-804710D01*
X-2394420Y-804710D01*
X-2381720Y-817410D01*
X-2381720Y-830110D01*
X-2394420Y-842810D01*
X-2432520Y-842810D01*
X-2445220Y-855510D01*
X-2445220Y-880910D01*
X-2381720Y-880910D01*
X-2280120Y-817410D02*
X-2292820Y-804710D01*
X-2330920Y-804710D01*
X-2343620Y-817410D01*
X-2343620Y-868210D01*
X-2330920Y-880910D01*
X-2292820Y-880910D01*
X-2280120Y-868210D01*
X-2280120Y-855510D01*
X-2292820Y-842810D01*
X-2343620Y-842810D01*
D17*
X-286220Y-1020610D02*
X-286220Y-1147610D01*
X-222720Y-1084110D02*
X-349720Y-1084110D01*
X-241319Y-1039209D02*
X-331121Y-1129011D01*
X-241319Y-1129011D02*
X-331121Y-1039209D01*
D43*
X-1078700Y-1058710D02*
X-1066000Y-1046010D01*
X-1027900Y-1046010D01*
X-1015200Y-1058710D01*
X-1015200Y-1071410D01*
X-1027900Y-1084110D01*
X-1015200Y-1096810D01*
X-1015200Y-1109510D01*
X-1027900Y-1122210D01*
X-1066000Y-1122210D01*
X-1078700Y-1109510D01*
X-1053300Y-1084110D02*
X-1027900Y-1084110D01*
X-951700Y-1109510D02*
X-939000Y-1109510D01*
X-939000Y-1122210D01*
X-951700Y-1122210D01*
X-951700Y-1109510D01*
X-812000Y-1046010D02*
X-875500Y-1046010D01*
X-875500Y-1071410D01*
X-824700Y-1071410D01*
X-812000Y-1084110D01*
X-812000Y-1109510D01*
X-824700Y-1122210D01*
X-862800Y-1122210D01*
X-875500Y-1109510D01*
X-786600Y-1122210D02*
X-786600Y-1071410D01*
X-786600Y-1084110D02*
X-773900Y-1071410D01*
X-748500Y-1096810D01*
X-723100Y-1071410D01*
X-710400Y-1084110D01*
X-710400Y-1122210D01*
X-685000Y-1122210D02*
X-685000Y-1071410D01*
X-685000Y-1084110D02*
X-672300Y-1071410D01*
X-646900Y-1096810D01*
X-621500Y-1071410D01*
X-608800Y-1084110D01*
X-608800Y-1122210D01*
X-1637500Y-1046010D02*
X-1713700Y-1122210D01*
X-1713700Y-1046010D02*
X-1675600Y-1084110D01*
X-1535900Y-1122210D02*
X-1612100Y-1122210D01*
X-1612100Y-1046010D01*
X-1535900Y-1046010D01*
X-1612100Y-1084110D02*
X-1561300Y-1084110D01*
X-1510500Y-1109510D02*
X-1497800Y-1122210D01*
X-1447000Y-1122210D01*
X-1434300Y-1109510D01*
X-1434300Y-1096810D01*
X-1447000Y-1084110D01*
X-1497800Y-1084110D01*
X-1510500Y-1071410D01*
X-1510500Y-1058710D01*
X-1497800Y-1046010D01*
X-1447000Y-1046010D01*
X-1434300Y-1058710D01*
X-2280120Y-1096810D02*
X-2356320Y-1096810D01*
X-2305520Y-1046010D01*
X-2305520Y-1122210D01*
M02*
