M48
METRIC,TZ
T01C0.7620
T02C1.0160
T03C3.5000
%
T01
X-19890Y+34570
X-22430Y+34570
X-24970Y+34570
X-27510Y+34570
X-30050Y+34570
X-32590Y+34570
X-35130Y+34570
X-37670Y+34570
X-40210Y+34570
X-42750Y+34570
X-45290Y+34570
X-47830Y+34570
X-50370Y+34570
X-52910Y+34570
X-55450Y+34570
X-57990Y+34570
X-60530Y+34570
X-63070Y+34570
X-65610Y+34570
X-68150Y+34570
X-68150Y+49810
X-65610Y+49810
X-63070Y+49810
X-60530Y+49810
X-57990Y+49810
X-55450Y+49810
X-52910Y+49810
X-50370Y+49810
X-47830Y+49810
X-45290Y+49810
X-42750Y+49810
X-40210Y+49810
X-37670Y+49810
X-35130Y+49810
X-32590Y+49810
X-30050Y+49810
X-27510Y+49810
X-24970Y+49810
X-22430Y+49810
X-19890Y+49810
X-15000Y+71530
X-17540Y+71530
X-15000Y+56290
X-12460Y+71530
X-12460Y+56290
X-9920Y+56290
X-17540Y+56290
X-7380Y+56290
X-7380Y+71530
X-9920Y+71530
X-74310Y+37910
X-76850Y+37910
X-79390Y+37910
X-81930Y+37910
X-84470Y+37910
X-87010Y+37910
X-89550Y+37910
X-89550Y+45530
X-87010Y+45530
X-84470Y+45530
X-81930Y+45530
X-79390Y+45530
X-76850Y+45530
X-74310Y+45530
X-11510Y+25780
X-8970Y+25780
X-6430Y+25780
X-40490Y+71390
X-40490Y+61230
X-48580Y+71390
X-48580Y+61230
X-32090Y+71290
X-32090Y+61130
X-56570Y+71490
X-56570Y+61330
X-81160Y+66350
X-78620Y+66350
X-72720Y+68910
X-72720Y+66370
T02
X-76040Y+77760
X-76040Y+75220
X-18300Y+16450
X-23400Y+16450
X-18300Y+3750
X-23400Y+3750
X-36530Y+16470
X-41630Y+16470
X-36530Y+3770
X-41630Y+3770
X-54920Y+16410
X-60020Y+16410
X-54920Y+3710
X-60020Y+3710
X-73480Y+16400
X-78580Y+16400
X-73480Y+3700
X-78580Y+3700
X-40550Y+77160
X-40550Y+79700
X-48570Y+77160
X-48570Y+79700
X-32080Y+77160
X-32080Y+79700
X-56580Y+77150
X-56580Y+79690
T03
X-5000Y+83000
X-66000Y+83000
X-5000Y+7000
X-89000Y+7000
M30
